<svg width="249" height="266" viewBox="0 0 249 266" fill="none" xmlns="http://www.w3.org/2000/svg">
<g opacity="0.7">
<path d="M211.691 3.0415H168.013V61.8953H211.691V3.0415Z" fill="#F4F4F4"/>
<path d="M211.691 61.8954H213.108V3.04159H211.691V61.8954Z" fill="#F4F4F4"/>
<path opacity="0.05" d="M211.691 61.8954H213.108V3.04159H211.691V61.8954Z" fill="#292A2E"/>
<path opacity="0.05" d="M203.735 14.8138H175.969V50.1232H203.735V14.8138Z" fill="#292A2E"/>
<path opacity="0.03" d="M203.735 14.8138H202.288V50.1232H203.735V14.8138Z" fill="#292A2E"/>
<path d="M247.413 77.7877H211.691V118.766H247.413V77.7877Z" fill="#F4F4F4"/>
<path opacity="0.05" d="M240.906 85.2524H218.199V111.301H240.906V85.2524Z" fill="#292A2E"/>
<path d="M247.413 118.766H248.83V77.7877H247.413V118.766Z" fill="#F4F4F4"/>
<path opacity="0.05" d="M247.413 118.766H248.83V77.7877H247.413V118.766Z" fill="#292A2E"/>
<path opacity="0.03" d="M240.906 85.2524H239.459V111.301H240.906V85.2524Z" fill="#292A2E"/>
</g>
<g opacity="0.7">
<path d="M122.259 0.737915H19.4269V117.627H122.259V0.737915Z" fill="#F4F4F4"/>
<path d="M19.4269 0.737915H18.2482V117.627H19.4269V0.737915Z" fill="#F4F4F4"/>
<path opacity="0.05" d="M19.4269 0.737915H18.2482V117.627H19.4269V0.737915Z" fill="#292A2E"/>
<path opacity="0.05" d="M44.3384 81.2845V50.7025H66.3768V68.4699H100.514V99.9297H115.024V117.628H100.514H97.7196H24.3735V81.2845H44.3384Z" fill="#292A2E"/>
<path opacity="0.34" d="M63.5481 54.0228H47.4994V57.3433H63.5481V54.0228Z" fill="#FFFFFA"/>
<path opacity="0.34" d="M63.5481 60.9039H47.4994V64.2243H63.5481V60.9039Z" fill="#FFFFFA"/>
<path opacity="0.34" d="M63.5481 67.7845H47.4994V71.1049H63.5481V67.7845Z" fill="#FFFFFA"/>
<path opacity="0.34" d="M30.1774 84.5077H27.2194V87.8281H30.1774V84.5077Z" fill="#FFFFFA"/>
<path opacity="0.34" d="M30.1774 91.3885H27.2194V94.709H30.1774V91.3885Z" fill="#FFFFFA"/>
<path opacity="0.34" d="M30.1774 98.2693H27.2194V101.59H30.1774V98.2693Z" fill="#FFFFFA"/>
<path opacity="0.34" d="M35.6497 84.5076H32.6918V87.8281H35.6497V84.5076Z" fill="#FFFFFA"/>
<path opacity="0.34" d="M35.6497 91.3885H32.6918V94.709H35.6497V91.3885Z" fill="#FFFFFA"/>
<path opacity="0.34" d="M35.6497 98.2693H32.6918V101.59H35.6497V98.2693Z" fill="#FFFFFA"/>
<path opacity="0.34" d="M40.9741 84.5076H38.0162V87.8281H40.9741V84.5076Z" fill="#FFFFFA"/>
<path opacity="0.34" d="M40.9741 91.3885H38.0162V94.709H40.9741V91.3885Z" fill="#FFFFFA"/>
<path opacity="0.34" d="M40.9741 98.2693H38.0162V101.59H40.9741V98.2693Z" fill="#FFFFFA"/>
<path d="M19.4269 58.5269H40.1183V0.737915H41.8296V58.5269H97.7196V0.737915H99.4308V58.5269H122.259V60.4721H99.4308V117.627H97.7196V60.4721H41.8296V117.627H40.1183V60.4721H19.4269V58.5269Z" fill="white"/>
<path d="M126.355 117.486H15.3304V121.374H126.355V117.486Z" fill="#F4F4F4"/>
<path opacity="0.1" d="M126.355 117.486H15.3304V121.374H126.355V117.486Z" fill="#292A2E"/>
<path opacity="0.1" d="M15.3304 117.486H13.7275V121.374H15.3304V117.486Z" fill="#292A2E"/>
<path opacity="0.1" d="M15.3304 117.486H13.7275V121.374H15.3304V117.486Z" fill="#292A2E"/>
</g>
<path d="M78.7767 15.2524H199.139C200.873 15.2524 202.535 16.0353 203.761 17.4289C204.987 18.8225 205.676 20.7126 205.676 22.6834V186.55C205.676 188.564 204.972 190.495 203.72 191.919C202.467 193.343 200.768 194.143 198.997 194.143H78.9191C77.1476 194.143 75.4486 193.343 74.196 191.919C72.9434 190.495 72.2396 188.564 72.2396 186.55V22.6825C72.2398 20.7119 72.9286 18.8221 74.1545 17.4287C75.3804 16.0353 77.043 15.2525 78.7767 15.2524V15.2524Z" fill="white"/>
<path d="M198.997 194.431H78.9191C77.0802 194.431 75.3167 193.6 74.0165 192.122C72.7163 190.644 71.9858 188.64 71.9858 186.55V22.394C71.9859 20.4233 72.6747 18.5335 73.9006 17.1401C75.1265 15.7467 76.7892 14.9639 78.5228 14.9639H199.393C201.126 14.9639 202.789 15.7467 204.015 17.1402C205.241 18.5338 205.93 20.4238 205.93 22.3945V186.55C205.93 188.64 205.199 190.644 203.899 192.122C202.599 193.6 200.835 194.431 198.997 194.431V194.431ZM72.4935 22.6701V186.55C72.4935 187.509 72.6596 188.459 72.9825 189.345C73.3054 190.231 73.7788 191.036 74.3754 191.714C74.9721 192.393 75.6805 192.931 76.4601 193.298C77.2397 193.665 78.0752 193.854 78.9191 193.854H198.997C200.701 193.854 202.335 193.084 203.54 191.714C204.745 190.345 205.422 188.487 205.422 186.55V22.598C205.422 21.6711 205.261 20.7534 204.949 19.8971C204.637 19.0409 204.18 18.2629 203.603 17.6076C203.026 16.9523 202.342 16.4325 201.589 16.0779C200.835 15.7233 200.028 15.5409 199.212 15.541H78.7657C77.1023 15.541 75.507 16.2921 74.3308 17.629C73.1545 18.966 72.4936 20.7793 72.4935 22.6701V22.6701Z" fill="#292A2E"/>
<path d="M98.1242 50.8252H83.5379C82.7251 50.8241 81.9458 50.4566 81.3709 49.8033C80.7961 49.15 80.4727 48.2642 80.4716 47.3402V30.7597C80.4726 29.8356 80.7959 28.9497 81.3708 28.2962C81.9456 27.6428 82.725 27.2752 83.5379 27.2742H98.1242C98.9372 27.2752 99.7166 27.6427 100.292 28.2961C100.866 28.9496 101.19 29.8355 101.191 30.7597V47.3402C101.19 48.2643 100.866 49.1501 100.291 49.8034C99.7165 50.4567 98.9371 50.8242 98.1242 50.8252V50.8252ZM83.5379 27.8507C82.8596 27.8516 82.2093 28.1583 81.7296 28.7036C81.25 29.2488 80.9801 29.988 80.9793 30.7591V47.3402C80.9801 48.1113 81.25 48.8505 81.7296 49.3958C82.2093 49.941 82.8596 50.2477 83.5379 50.2486H98.1242C98.8026 50.2478 99.453 49.9411 99.9327 49.3959C100.412 48.8506 100.682 48.1114 100.683 47.3402V30.7597C100.682 29.9885 100.412 29.2493 99.9327 28.704C99.453 28.1588 98.8026 27.8521 98.1242 27.8513L83.5379 27.8507Z" fill="#292A2E"/>
<path d="M98.1242 83.674H83.5379C82.725 83.6729 81.9456 83.3054 81.3708 82.6519C80.7959 81.9985 80.4726 81.1126 80.4716 80.1885V63.6082C80.4725 62.6841 80.7958 61.7981 81.3707 61.1446C81.9455 60.4911 82.7249 60.1235 83.5379 60.1224H98.1242C98.9372 60.1235 99.7167 60.4911 100.292 61.1446C100.866 61.7981 101.19 62.6841 101.191 63.6082V80.1885C101.19 81.1126 100.866 81.9986 100.292 82.652C99.7166 83.3055 98.9372 83.673 98.1242 83.674V83.674ZM83.5379 60.7004C82.8596 60.7013 82.2092 61.0081 81.7295 61.5534C81.2499 62.0987 80.9801 62.838 80.9793 63.6091V80.1894C80.9801 80.9605 81.2499 81.6997 81.7295 82.245C82.2092 82.7902 82.8596 83.0969 83.5379 83.0978H98.1242C98.8026 83.0969 99.453 82.7902 99.9327 82.245C100.412 81.6998 100.682 80.9605 100.683 80.1894V63.6082C100.682 62.8371 100.412 62.0978 99.9327 61.5525C99.453 61.0072 98.8026 60.7005 98.1242 60.6996L83.5379 60.7004Z" fill="#292A2E"/>
<path d="M98.1242 116.523H83.5379C82.725 116.522 81.9456 116.154 81.3708 115.501C80.7959 114.847 80.4726 113.961 80.4716 113.037V96.4571C80.4726 95.533 80.7959 94.6471 81.3708 93.9937C81.9456 93.3403 82.725 92.9727 83.5379 92.9716H98.1242C98.9372 92.9726 99.7166 93.3401 100.292 93.9936C100.866 94.647 101.19 95.533 101.191 96.4571V113.037C101.19 113.962 100.866 114.848 100.292 115.501C99.7166 116.154 98.9372 116.522 98.1242 116.523ZM83.5379 93.5487C82.8596 93.5496 82.2092 93.8563 81.7295 94.4015C81.2499 94.9468 80.9801 95.686 80.9793 96.4571V113.037C80.9801 113.808 81.2499 114.548 81.7295 115.093C82.2092 115.638 82.8596 115.945 83.5379 115.946H98.1242C98.8026 115.945 99.453 115.638 99.9327 115.093C100.412 114.548 100.682 113.809 100.683 113.037V96.4571C100.682 95.686 100.412 94.9467 99.9327 94.4015C99.453 93.8563 98.8026 93.5496 98.1242 93.5487H83.5379Z" fill="#292A2E"/>
<path d="M98.1242 148.921H83.5379C82.725 148.919 81.9456 148.552 81.3708 147.898C80.7959 147.245 80.4726 146.359 80.4716 145.435V128.855C80.4725 127.931 80.7958 127.045 81.3707 126.391C81.9455 125.738 82.7249 125.37 83.5379 125.369H98.1242C98.9372 125.37 99.7167 125.738 100.292 126.391C100.866 127.045 101.19 127.931 101.191 128.855V145.435C101.19 146.359 100.866 147.245 100.292 147.899C99.7166 148.552 98.9372 148.92 98.1242 148.921V148.921ZM83.5379 125.946C82.8595 125.947 82.2091 126.254 81.7295 126.799C81.2498 127.344 80.98 128.084 80.9793 128.855V145.435C80.9801 146.206 81.25 146.945 81.7296 147.491C82.2093 148.036 82.8596 148.342 83.5379 148.343H98.1242C98.8026 148.343 99.453 148.036 99.9327 147.491C100.412 146.945 100.682 146.206 100.683 145.435V128.855C100.682 128.084 100.412 127.344 99.9328 126.799C99.4531 126.254 98.8026 125.947 98.1242 125.946H83.5379Z" fill="#292A2E"/>
<path d="M98.1242 181.318H83.5379C82.7249 181.317 81.9455 180.949 81.3707 180.296C80.7958 179.642 80.4725 178.756 80.4716 177.832V161.252C80.4725 160.328 80.7958 159.442 81.3707 158.788C81.9455 158.135 82.7249 157.767 83.5379 157.766H98.1242C98.9372 157.767 99.7167 158.135 100.292 158.788C100.866 159.442 101.19 160.328 101.191 161.252V177.832C101.19 178.756 100.866 179.642 100.291 180.296C99.7166 180.949 98.9372 181.317 98.1242 181.318V181.318ZM83.5379 158.343C82.8596 158.344 82.2092 158.651 81.7295 159.196C81.2499 159.741 80.9801 160.481 80.9793 161.252V177.832C80.9801 178.603 81.2499 179.342 81.7295 179.888C82.2092 180.433 82.8596 180.74 83.5379 180.741H98.1242C98.8026 180.74 99.453 180.433 99.9327 179.888C100.412 179.343 100.682 178.603 100.683 177.832V161.252C100.682 160.481 100.412 159.742 99.9327 159.196C99.453 158.651 98.8026 158.344 98.1242 158.343L83.5379 158.343Z" fill="#292A2E"/>
<path d="M88.2365 78.5316C87.9741 78.5318 87.7218 78.4162 87.5329 78.2093L83.2813 73.5635C83.1852 73.4584 83.1082 73.3329 83.0547 73.194C83.0012 73.0551 82.9724 72.9057 82.9697 72.7541C82.9671 72.6026 82.9907 72.4519 83.0393 72.3107C83.0879 72.1696 83.1605 72.0407 83.2529 71.9314C83.3453 71.8221 83.4557 71.7346 83.5779 71.6738C83.7 71.613 83.8315 71.5802 83.9649 71.5772C84.0982 71.5742 84.2307 71.6011 84.3549 71.6563C84.4791 71.7115 84.5925 71.794 84.6887 71.8991L88.2193 75.7574L97.0689 65.6059C97.2591 65.392 97.5159 65.2722 97.7834 65.2723C98.0509 65.2724 98.3076 65.3925 98.4976 65.6065C98.6877 65.8205 98.7957 66.1112 98.7984 66.4152C98.801 66.7193 98.6979 67.0123 98.5116 67.2305L88.9577 78.1885C88.8636 78.2972 88.7513 78.3835 88.6275 78.4424C88.5037 78.5013 88.3708 78.5316 88.2365 78.5316V78.5316Z" fill="#E59F2E"/>
<path d="M88.2365 111.38C87.9741 111.381 87.7219 111.265 87.5329 111.058L83.2813 106.413C83.0871 106.2 82.975 105.909 82.9697 105.603C82.9644 105.297 83.0662 105.001 83.2529 104.781C83.4395 104.56 83.6956 104.432 83.9649 104.426C84.2341 104.42 84.4945 104.536 84.6887 104.748L88.2193 108.605L97.0689 98.4548C97.2585 98.2373 97.5163 98.1143 97.7856 98.1129C98.0549 98.1115 98.3137 98.2318 98.505 98.4473C98.6963 98.6627 98.8045 98.9558 98.8057 99.2619C98.8069 99.568 98.7011 99.8622 98.5116 100.08L88.9578 111.038C88.8635 111.146 88.7513 111.233 88.6274 111.291C88.5036 111.35 88.3708 111.381 88.2365 111.38V111.38Z" fill="#E59F2E"/>
<path opacity="0.5" d="M194.709 33.9155H109.163C108.772 33.9155 108.454 34.276 108.454 34.7208C108.454 35.1656 108.772 35.5262 109.163 35.5262H194.709C195.1 35.5262 195.418 35.1656 195.418 34.7208C195.418 34.276 195.1 33.9155 194.709 33.9155Z" fill="#262626"/>
<path opacity="0.5" d="M164.246 42.5722H109.163C108.772 42.5722 108.454 42.9328 108.454 43.3776C108.454 43.8224 108.772 44.1829 109.163 44.1829H164.246C164.638 44.1829 164.955 43.8224 164.955 43.3776C164.955 42.9328 164.638 42.5722 164.246 42.5722Z" fill="#262626"/>
<path opacity="0.5" d="M194.709 66.7645H109.163C108.772 66.7645 108.454 67.125 108.454 67.5698C108.454 68.0146 108.772 68.3752 109.163 68.3752H194.709C195.1 68.3752 195.418 68.0146 195.418 67.5698C195.418 67.125 195.1 66.7645 194.709 66.7645Z" fill="#262626"/>
<path opacity="0.5" d="M164.246 75.4212H109.163C108.772 75.4212 108.454 75.7818 108.454 76.2266C108.454 76.6714 108.772 77.0319 109.163 77.0319H164.246C164.638 77.0319 164.955 76.6714 164.955 76.2266C164.955 75.7818 164.638 75.4212 164.246 75.4212Z" fill="#262626"/>
<path opacity="0.5" d="M194.709 99.6133H109.163C108.772 99.6133 108.454 99.9739 108.454 100.419C108.454 100.863 108.772 101.224 109.163 101.224H194.709C195.1 101.224 195.418 100.863 195.418 100.419C195.418 99.9739 195.1 99.6133 194.709 99.6133Z" fill="#262626"/>
<path opacity="0.5" d="M164.246 108.27H109.163C108.772 108.27 108.454 108.631 108.454 109.076C108.454 109.52 108.772 109.881 109.163 109.881H164.246C164.638 109.881 164.955 109.52 164.955 109.076C164.955 108.631 164.638 108.27 164.246 108.27Z" fill="#262626"/>
<path opacity="0.5" d="M194.709 132.011H109.163C108.772 132.011 108.454 132.371 108.454 132.816C108.454 133.261 108.772 133.622 109.163 133.622H194.709C195.1 133.622 195.418 133.261 195.418 132.816C195.418 132.371 195.1 132.011 194.709 132.011Z" fill="#262626"/>
<path opacity="0.5" d="M164.246 140.668H109.163C108.772 140.668 108.454 141.028 108.454 141.473C108.454 141.918 108.772 142.278 109.163 142.278H164.246C164.638 142.278 164.955 141.918 164.955 141.473C164.955 141.028 164.638 140.668 164.246 140.668Z" fill="#262626"/>
<path opacity="0.5" d="M194.709 164.408H109.163C108.772 164.408 108.454 164.769 108.454 165.214C108.454 165.658 108.772 166.019 109.163 166.019H194.709C195.1 166.019 195.418 165.658 195.418 165.214C195.418 164.769 195.1 164.408 194.709 164.408Z" fill="#262626"/>
<path opacity="0.5" d="M164.246 173.065H109.163C108.772 173.065 108.454 173.426 108.454 173.87C108.454 174.315 108.772 174.676 109.163 174.676H164.246C164.638 174.676 164.955 174.315 164.955 173.87C164.955 173.426 164.638 173.065 164.246 173.065Z" fill="#262626"/>
<path d="M87.5039 44.9526C87.5779 44.7459 87.7092 44.5723 87.878 44.4583C88.0468 44.3442 88.2437 44.296 88.4388 44.321C88.4388 44.3031 88.4251 44.2598 88.4526 44.2601L87.8179 43.8042C87.6282 43.6744 87.4861 43.471 87.4181 43.2314C87.3501 42.9919 87.3606 42.7324 87.4478 42.501C87.5404 42.2756 87.7033 42.0973 87.905 42.0007C88.1067 41.9042 88.3328 41.8962 88.5394 41.9785C88.5373 41.9686 88.5427 41.9588 88.5434 41.9496L88.2825 41.7623C88.1041 41.6392 87.9686 41.4499 87.899 41.2263C87.8293 41.0027 87.8297 40.7586 87.9002 40.5354C87.947 40.3965 88.0203 40.2711 88.1149 40.1684C88.2094 40.0656 88.3229 39.9879 88.447 39.941C88.5712 39.8941 88.703 39.8791 88.8328 39.897C88.9627 39.915 89.0875 39.9654 89.1981 40.0448L89.8008 40.4777C89.8023 40.4736 89.8008 40.4693 89.8023 40.4655C89.8038 40.4618 89.8107 40.4601 89.8137 40.4557C89.6723 40.2948 89.5831 40.084 89.5608 39.8578C89.5386 39.6317 89.5845 39.4037 89.6911 39.2112C89.9384 38.6938 90.5735 38.7538 90.9632 39.0334L92.1309 40.0229C92.311 40.1756 92.4551 40.3765 92.5503 40.6078C92.6455 40.8391 92.6889 41.0935 92.6767 41.3485C92.5729 43.5554 92.1802 49.3127 90.9365 48.4182L87.8753 46.2211C87.698 46.0868 87.5653 45.8891 87.498 45.6594C87.4307 45.4296 87.4328 45.1809 87.5039 44.9526V44.9526Z" fill="#E98862"/>
<path d="M88.2366 45.3537C87.9741 45.3539 87.7219 45.2383 87.5329 45.0313L83.2813 40.3856C83.1837 40.2809 83.1053 40.1553 83.0507 40.0161C82.996 39.8768 82.9662 39.7266 82.9629 39.5741C82.9596 39.4217 82.983 39.27 83.0316 39.1278C83.0802 38.9857 83.153 38.8559 83.246 38.746C83.339 38.636 83.4502 38.5481 83.5733 38.4873C83.6963 38.4265 83.8287 38.3941 83.9629 38.3918C84.097 38.3895 84.2302 38.4175 84.3548 38.474C84.4794 38.5306 84.5929 38.6147 84.6887 38.7214L88.2193 42.5789L97.0689 32.4283C97.1628 32.3206 97.2744 32.235 97.3974 32.1763C97.5203 32.1177 97.6523 32.0871 97.7856 32.0864C97.919 32.0857 98.0511 32.1149 98.1746 32.1723C98.298 32.2296 98.4103 32.3141 98.505 32.4208C98.5997 32.5275 98.675 32.6543 98.7266 32.7941C98.7782 32.9339 98.8051 33.0838 98.8057 33.2354C98.8063 33.387 98.7807 33.5372 98.7302 33.6775C98.6798 33.8178 98.6055 33.9455 98.5116 34.0531L88.9578 45.0111C88.8635 45.1197 88.7512 45.206 88.6274 45.2648C88.5036 45.3236 88.3708 45.3538 88.2366 45.3537V45.3537Z" fill="#E59F2E"/>
<path d="M85.3109 42.5363C85.3321 42.3682 85.3833 42.2068 85.4613 42.0619C85.5393 41.9171 85.6424 41.7918 85.7644 41.6937C85.8864 41.5957 86.0247 41.5269 86.1708 41.4916C86.317 41.4564 86.4679 41.4553 86.6144 41.4885C86.8959 41.5641 87.1417 41.7583 87.3022 42.0318C87.4627 42.3054 87.5259 42.638 87.479 42.9625L87.4486 44.7345C87.4421 45.1093 87.5565 45.4739 87.7703 45.7593C87.9841 46.0448 88.2824 46.2315 88.6089 46.2841V46.2841C88.929 46.3356 89.2547 46.255 89.5269 46.0568C89.799 45.8586 89.9996 45.556 90.0922 45.204L90.8875 42.179L90.0227 40.7111C90.3253 40.1571 90.5791 38.7244 91.1033 39.1512C91.5468 39.4645 92.5538 40.2223 92.8295 40.9402C92.8349 40.9431 93.3505 47.103 93.0699 47.6166L90.5877 55.1641C89.3969 57.3433 83.6501 55.657 83.6501 55.657L85.3109 42.5363Z" fill="#E98862"/>
<path d="M88.2193 42.5789L97.0689 32.4283C97.1628 32.3206 97.2744 32.235 97.3974 32.1763C97.5203 32.1177 97.6523 32.0871 97.7856 32.0864C97.919 32.0857 98.0511 32.1149 98.1746 32.1723C98.298 32.2296 98.4103 32.3141 98.505 32.4208C98.5997 32.5275 98.675 32.6543 98.7266 32.7941C98.7782 32.9339 98.8051 33.0838 98.8057 33.2354C98.8063 33.387 98.7807 33.5372 98.7302 33.6775C98.6797 33.8178 98.6055 33.9455 98.5116 34.0531L88.9578 45.0111" fill="#FABC1D"/>
<path d="M43.0529 95.0414L78.8685 91.6154C81.5056 91.6942 83.8017 89.2019 84.7689 86.4052L94.1524 52.9734L81.8775 47.4885L73.5945 76.1259L42.0959 78.6317L43.0529 95.0414Z" fill="#AF2120"/>
<path d="M22.257 252.448C22.257 252.448 23.4032 259.2 28.9659 259.577C34.5286 259.955 33.3223 264.991 33.3223 264.991H12.0647V252.918L22.257 252.448Z" fill="#AF2120"/>
<path d="M15.7005 129.253C15.7005 129.253 15.7673 127.223 15.7531 131.828C15.7005 149.005 15.4383 168.626 14.7976 180.108C13.7677 198.565 11.1268 256.757 11.1268 256.757L25.0954 256.624L38.634 128.555L15.7005 129.253Z" fill="#262626"/>
<path d="M31.4748 149.509C31.4748 149.509 32.0536 161.975 32.1602 164.901C32.4085 171.669 32.4948 178.677 32.4948 186.622L34.6972 165.793C34.6972 165.793 33.086 159.266 31.4748 149.509Z" fill="#0A0A0A"/>
<path d="M47.1249 252.448C47.1249 252.448 48.2711 259.2 53.8338 259.577C59.3966 259.955 58.1902 264.991 58.1902 264.991H36.9327V252.918L47.1249 252.448Z" fill="#AF2120"/>
<path d="M53.8884 130.587C53.8884 130.587 55.1257 189.296 54.9445 192.165L49.7498 256.311L36.0119 256.6L37.3508 189.844C37.3508 189.844 36.4064 171.429 32.4922 154.33C30.4896 145.554 29.2843 136.568 28.8954 127.512V127.512L53.8884 130.587Z" fill="#262626"/>
<path d="M15.549 129.251L15.5025 129.254C15.5025 129.254 15.5363 128.252 15.549 129.251Z" fill="#333333"/>
<path d="M55.8548 99.7308C55.5669 103.578 54.1654 125.848 53.8884 130.587H15.7157C15.5002 126.313 14.5317 107.624 13.7141 99.2668C12.9335 91.2916 11.402 87.2988 12.5245 84.941C14.3589 81.0876 19.3715 78.8611 22.7894 78.335C24.8766 78.0139 42.6703 77.783 42.713 77.783C44.1107 77.783 52.2493 78.5298 54.0483 80.1048C57.3035 82.9546 56.3579 93.0221 55.8548 99.7308Z" fill="#AF2120"/>
<path d="M56.382 93.8796C56.4144 93.8796 56.4457 93.8656 56.4693 93.8403C56.4929 93.815 56.5071 93.7805 56.5089 93.7437L56.8169 88.2117C56.8188 88.1735 56.8073 88.136 56.785 88.1075C56.7626 88.0789 56.7312 88.0616 56.6976 88.0594C56.6641 88.0576 56.6313 88.0708 56.6063 88.0962C56.5812 88.1215 56.5659 88.157 56.5635 88.195L56.2556 93.7269C56.2537 93.7651 56.2651 93.8026 56.2875 93.8312C56.3099 93.8598 56.3413 93.8771 56.3749 93.8793L56.382 93.8796Z" fill="#0C0C0C"/>
<path d="M7.46287 130.335C6.34025 130.335 5.23434 130.026 4.23923 129.435C3.24412 128.845 2.38927 127.989 1.74741 126.942C1.10556 125.896 0.695694 124.688 0.552698 123.422C0.409701 122.156 0.537803 120.87 0.926103 119.673C1.31933 118.457 10.5647 90.6277 12.3242 85.4712L25.3569 91.4732C24.3668 94.3724 20.7816 105.362 17.9009 114.215L22.6866 113.624L24.1929 129.374L8.21657 130.288C7.96626 130.319 7.71466 130.335 7.46287 130.335V130.335Z" fill="#AF2120"/>
<path d="M47.2608 77.2568C47.2181 77.2505 46.0471 82.2592 36.9091 81.4796C30.583 80.9408 29.0396 76.0463 28.8954 76.0463C29.5775 75.8815 30.6853 75.7104 30.9882 75.5269C31.9843 74.9183 32.7101 74.1779 33.0751 72.5882C33.3607 71.3454 33.5066 66.5602 33.5066 64.1594L43.2412 66.6459C43.1054 69.3541 42.1557 75.6325 45.4843 76.7437C46.038 76.9273 46.6345 77.0961 47.2608 77.2568Z" fill="#E98862"/>
<path d="M42.9041 71.9698C39.0666 72.3141 34.1367 70.4722 33.2002 64.6523L32.3554 59.4005C31.4189 53.5806 33.349 48.3034 38.1699 47.3012C42.9907 46.2991 47.3532 50.2682 48.2894 56.0881L48.6636 58.413C49.0228 60.6465 49.7511 71.3558 42.9041 71.9698Z" fill="#E98862"/>
<path d="M46.4624 66.6263C45.7737 62.6921 45.4576 60.067 45.4944 57.298C46.4647 55.3647 46.2096 53.1428 45.989 52.1836C46.6572 52.666 47.4428 52.8949 48.2328 52.8375C48.2328 52.8375 46.6282 45.5173 41.1743 43.5476C40.1714 43.1041 37.6107 42.5437 34.2108 43.0738C31.3192 43.5246 24.1909 45.9822 23.1725 55.1044V55.1096C23.1389 55.4123 22.4546 63.8171 21.0908 67.8498C19.2567 73.2706 16.6814 74.9549 16.7466 81.21C16.8306 89.2553 29.8425 90.3264 37.6897 89.7245C45.5368 89.1226 49.9189 86.1894 49.9763 80.3914C50.0387 73.8945 47.8408 74.4978 46.4624 66.6263Z" fill="#0A0A0A"/>
<path d="M14.9038 99.4274L14.6493 99.4373L15.5873 130.592L15.8417 130.582L14.9038 99.4274Z" fill="#0C0C0C"/>
<path d="M243.051 265.193H4.32068C4.27355 265.193 4.22835 265.172 4.19503 265.134C4.1617 265.096 4.14298 265.045 4.14298 264.991C4.14298 264.937 4.1617 264.886 4.19503 264.848C4.22835 264.81 4.27355 264.789 4.32068 264.789H243.051C243.098 264.789 243.143 264.81 243.176 264.848C243.21 264.886 243.229 264.937 243.229 264.991C243.229 265.045 243.21 265.096 243.176 265.134C243.143 265.172 243.098 265.193 243.051 265.193V265.193Z" fill="#292A2E"/>
</svg>
