<svg width="997" height="775" viewBox="0 0 997 775" fill="none" xmlns="http://www.w3.org/2000/svg">
<path d="M-91.4877 775L71.9548 603.614H227.577C227.577 603.614 346.353 539.509 423.864 502.018L-91.4877 -70.4479V775Z" fill="#AF2120"/>
<path d="M886.039 312.963C1012.73 169.847 996.304 -1.53987 996.304 -1.53987L-91.4877 -70.4479L423.864 502.018C600.329 416.666 759.351 456.08 886.039 312.963Z" fill="#AF2120"/>
<path d="M319.5 554.858L266.5 593.858L177.752 549.5L279.752 452.5L319.5 554.858Z" fill="#AF2120"/>
<path d="M0 692C17.3754 655.148 36.0139 635.604 72 616.5C125.465 588.118 171.189 639.933 227 616.5C243.525 609.562 252.489 604.519 267 594L177 524L34 528.5L0 556.5V692Z" fill="#AF2120"/>
</svg>
