<svg width="228" height="283" viewBox="0 0 228 283" fill="none" xmlns="http://www.w3.org/2000/svg">
<path d="M47.9122 224.253C47.7794 224.253 47.652 224.196 47.5581 224.094C47.4643 223.992 47.4115 223.854 47.4115 223.711V219.477C47.4115 217.139 46.5534 214.897 45.0258 213.244C43.4983 211.591 41.4265 210.662 39.2662 210.662C37.106 210.662 35.0342 211.591 33.5066 213.244C31.9791 214.897 31.1209 217.139 31.1209 219.477V223.711C31.1209 223.854 31.0682 223.992 30.9742 224.094C30.8803 224.196 30.7529 224.253 30.62 224.253C30.4871 224.253 30.3597 224.196 30.2658 224.094C30.1718 223.992 30.119 223.854 30.119 223.711V219.477C30.1122 218.173 30.3437 216.879 30.8003 215.672C31.2569 214.464 31.9296 213.366 32.7796 212.441C33.6297 211.516 34.6404 210.782 35.7536 210.281C36.8667 209.78 38.0605 209.522 39.2661 209.522C40.4717 209.522 41.6654 209.78 42.7786 210.281C43.8918 210.782 44.9025 211.516 45.7525 212.441C46.6026 213.366 47.2753 214.464 47.7319 215.672C48.1885 216.879 48.42 218.173 48.4131 219.477V223.711C48.4131 223.854 48.3603 223.992 48.2664 224.094C48.1725 224.196 48.045 224.253 47.9122 224.253V224.253Z" fill="#494945"/>
<path d="M59.7764 220.052H49.2365V281.615H59.7764V220.052Z" fill="#E59F2E"/>
<path opacity="0.21" d="M59.7764 220.052H49.2365V281.615H59.7764V220.052Z" fill="#0A0A0A"/>
<path d="M49.2364 220.052H8.21323V281.615H49.2364V220.052Z" fill="#E59F2E"/>
<path d="M37.3714 224.253C37.2386 224.253 37.1112 224.196 37.0173 224.094C36.9235 223.992 36.8707 223.854 36.8707 223.711V219.477C36.8772 218.315 36.6713 217.163 36.2649 216.088C35.8584 215.012 35.2595 214.034 34.5025 213.21C33.7454 212.385 32.8453 211.731 31.8538 211.285C30.8624 210.839 29.7991 210.609 28.7253 210.609C27.6514 210.609 26.5882 210.839 25.5967 211.285C24.6053 211.731 23.7051 212.385 22.9481 213.21C22.1911 214.034 21.5921 215.012 21.1857 216.088C20.7793 217.163 20.5734 218.315 20.5798 219.477V223.711C20.5815 223.783 20.5697 223.855 20.5453 223.922C20.5209 223.989 20.4842 224.051 20.4376 224.103C20.3909 224.154 20.3351 224.195 20.2736 224.224C20.212 224.252 20.1459 224.266 20.079 224.266C20.0122 224.266 19.9461 224.252 19.8845 224.224C19.823 224.195 19.7672 224.154 19.7205 224.103C19.6739 224.051 19.6372 223.989 19.6128 223.922C19.5884 223.855 19.5766 223.783 19.5782 223.711V219.477C19.5714 218.173 19.8029 216.879 20.2595 215.672C20.7161 214.464 21.3888 213.366 22.2388 212.441C23.0889 211.516 24.0996 210.782 25.2128 210.281C26.3259 209.78 27.5197 209.522 28.7253 209.522C29.9309 209.522 31.1246 209.78 32.2378 210.281C33.351 210.782 34.3617 211.516 35.2117 212.441C36.0618 213.366 36.7345 214.464 37.1911 215.672C37.6477 216.879 37.8792 218.173 37.8723 219.477V223.711C37.8723 223.854 37.8195 223.992 37.7256 224.094C37.6317 224.196 37.5042 224.253 37.3714 224.253Z" fill="#494945"/>
<path opacity="0.11" d="M49.2365 220.052L54.5064 226.195L59.7761 220.052H49.2365Z" fill="#0A0A0A"/>
<path opacity="0.11" d="M49.2365 281.615L54.5064 275.473L59.7761 281.615H49.2365Z" fill="#0A0A0A"/>
<path d="M164.496 0.620728H77.2033C69.982 0.620728 64.128 6.95606 64.128 14.7711V236.847C64.128 244.662 69.982 250.998 77.2033 250.998H164.496C171.717 250.998 177.571 244.662 177.571 236.847V14.7711C177.571 6.95606 171.717 0.620728 164.496 0.620728Z" fill="#292A2E"/>
<path d="M164.455 5.03931H77.2444C72.2857 5.03931 68.266 9.38958 68.266 14.7559V236.532C68.266 241.899 72.2857 246.249 77.2444 246.249H164.455C169.413 246.249 173.433 241.899 173.433 236.532V14.7559C173.433 9.38958 169.413 5.03931 164.455 5.03931Z" fill="white"/>
<path d="M99.3107 3.21246H142.387V8.0363C142.387 9.41958 141.88 10.7462 140.976 11.7245C140.072 12.7027 138.847 13.2525 137.568 13.2528H104.131C102.852 13.2528 101.626 12.7032 100.722 11.7249C99.8185 10.7466 99.3107 9.41981 99.3107 8.0363V3.21246Z" fill="#292A2E"/>
<g opacity="0.15">
<path d="M163.991 79.5094H77.7073C76.5147 79.5079 75.3714 78.9946 74.5281 78.082C73.6848 77.1694 73.2105 75.932 73.2092 74.6414V25.3822C73.2105 24.0916 73.6848 22.8542 74.5281 21.9416C75.3714 21.029 76.5147 20.5157 77.7073 20.5142H163.991C165.184 20.5157 166.327 21.029 167.171 21.9416C168.014 22.8542 168.488 24.0916 168.49 25.3822V74.6414C168.488 75.932 168.014 77.1694 167.171 78.082C166.327 78.9946 165.184 79.5079 163.991 79.5094V79.5094ZM77.7073 21.1585C76.6727 21.1599 75.6808 21.6054 74.9493 22.3972C74.2177 23.189 73.8063 24.2625 73.8051 25.3822V74.6414C73.8062 75.7611 74.2176 76.8346 74.9492 77.6265C75.6807 78.4183 76.6727 78.8637 77.7073 78.8651H163.991C165.026 78.8639 166.018 78.4185 166.75 77.6267C167.482 76.8349 167.893 75.7612 167.894 74.6414V25.3822C167.893 24.2624 167.481 23.1888 166.75 22.397C166.018 21.6052 165.026 21.1598 163.991 21.1585H77.7073Z" fill="#292A2E"/>
</g>
<g opacity="0.43">
<path d="M122.881 34.3486C124.425 34.3486 125.676 32.9943 125.676 31.3236C125.676 29.6528 124.425 28.2985 122.881 28.2985C121.337 28.2985 120.086 29.6528 120.086 31.3236C120.086 32.9943 121.337 34.3486 122.881 34.3486Z" fill="#AF2120"/>
<path d="M131.811 34.3486C133.354 34.3486 134.606 32.9943 134.606 31.3236C134.606 29.6528 133.354 28.2985 131.811 28.2985C130.267 28.2985 129.015 29.6528 129.015 31.3236C129.015 32.9943 130.267 34.3486 131.811 34.3486Z" fill="#AF2120"/>
<path d="M140.74 34.3486C142.284 34.3486 143.535 32.9943 143.535 31.3236C143.535 29.6528 142.284 28.2985 140.74 28.2985C139.196 28.2985 137.945 29.6528 137.945 31.3236C137.945 32.9943 139.196 34.3486 140.74 34.3486Z" fill="#AF2120"/>
<path d="M149.67 34.3486C151.213 34.3486 152.465 32.9943 152.465 31.3236C152.465 29.6528 151.213 28.2985 149.67 28.2985C148.126 28.2985 146.874 29.6528 146.874 31.3236C146.874 32.9943 148.126 34.3486 149.67 34.3486Z" fill="#AF2120"/>
<path d="M158.599 34.3486C160.143 34.3486 161.395 32.9943 161.395 31.3236C161.395 29.6528 160.143 28.2985 158.599 28.2985C157.056 28.2985 155.804 29.6528 155.804 31.3236C155.804 32.9943 157.056 34.3486 158.599 34.3486Z" fill="#AF2120"/>
</g>
<g opacity="0.15">
<path d="M161.395 40.6823H120.849V41.3266H161.395V40.6823Z" fill="#292A2E"/>
</g>
<g opacity="0.15">
<path d="M161.395 47.1248H120.849V47.769H161.395V47.1248Z" fill="#292A2E"/>
</g>
<g opacity="0.15">
<path d="M142.388 53.5673H120.849V54.2116H142.388V53.5673Z" fill="#292A2E"/>
</g>
<g opacity="0.15">
<path d="M161.692 71.1408H147.845V66.3682H161.692V71.1408ZM148.44 70.4965H161.097V67.0124H148.44V70.4965Z" fill="#292A2E"/>
</g>
<path d="M142.299 66.6901H129.047V70.8184H142.299V66.6901Z" fill="#E59F2E"/>
<path d="M110.248 36.8277C109.605 35.0469 107.467 33.953 103.536 32.6155C103.411 32.5733 103.024 32.4709 102.634 32.3701C102.515 32.3393 102.391 32.3376 102.271 32.3649C102.151 32.3922 102.039 32.4479 101.941 32.528C101.844 32.6081 101.764 32.7106 101.707 32.8282C101.651 32.9457 101.619 33.0753 101.615 33.2076C101.615 33.2076 101.139 35.4515 97.6399 35.4515C93.5025 35.4515 92.937 33.2076 92.937 33.2076C92.9324 33.0753 92.9008 32.9457 92.8443 32.8282C92.7879 32.7106 92.7081 32.6081 92.6106 32.528C92.5132 32.4479 92.4005 32.3922 92.2808 32.3649C92.161 32.3376 92.0372 32.3393 91.9181 32.3701C91.527 32.4709 91.1404 32.5733 91.0159 32.6155C87.0842 33.953 84.9471 35.0469 84.3039 36.8277C82.0459 43.0769 78.6062 62.7317 78.6062 62.7317L83.7285 64.1858L88.0355 47.693C88.6502 50.1666 88.8457 57.722 88.8457 57.722H93.7529H100.799H105.574C105.574 57.722 105.901 50.1666 106.516 47.693L110.823 64.1858L115.945 62.7317C115.945 62.7317 112.506 43.0769 110.248 36.8277Z" fill="#E59F2E"/>
<path opacity="0.48" d="M110.248 36.8277C109.605 35.0469 107.467 33.953 103.536 32.6155C103.411 32.5733 103.024 32.4709 102.634 32.3701C102.515 32.3393 102.391 32.3376 102.271 32.3649C102.151 32.3922 102.039 32.4479 101.941 32.528C101.844 32.6081 101.764 32.7106 101.707 32.8282C101.651 32.9457 101.619 33.0753 101.615 33.2076C101.615 33.2076 101.139 35.4515 97.6399 35.4515C93.5025 35.4515 92.937 33.2076 92.937 33.2076C92.9324 33.0753 92.9008 32.9457 92.8443 32.8282C92.7879 32.7106 92.7081 32.6081 92.6106 32.528C92.5132 32.4479 92.4005 32.3922 92.2808 32.3649C92.161 32.3376 92.0372 32.3393 91.9181 32.3701C91.527 32.4709 91.1404 32.5733 91.0159 32.6155C87.0842 33.953 84.9471 35.0469 84.3039 36.8277C82.0459 43.0769 78.6062 62.7317 78.6062 62.7317L83.7285 64.1858L88.0355 47.693C88.6502 50.1666 88.8457 57.722 88.8457 57.722H93.7529H100.799H105.574C105.574 57.722 105.901 50.1666 106.516 47.693L110.823 64.1858L115.945 62.7317C115.945 62.7317 112.506 43.0769 110.248 36.8277Z" fill="white"/>
<g opacity="0.15">
<path d="M163.991 148.873H77.7073C76.5148 148.872 75.3715 148.359 74.5282 147.446C73.685 146.534 73.2106 145.296 73.2092 144.006V94.746C73.2107 93.4555 73.6851 92.2183 74.5283 91.3058C75.3716 90.3934 76.5148 89.8801 77.7073 89.8787H163.991C165.184 89.8801 166.327 90.3934 167.17 91.3058C168.014 92.2183 168.488 93.4555 168.49 94.746V144.006C168.488 145.296 168.014 146.534 167.17 147.446C166.327 148.359 165.184 148.872 163.991 148.873ZM77.7073 90.5229C76.6728 90.5244 75.681 90.9698 74.9495 91.7614C74.218 92.5531 73.8064 93.6264 73.8051 94.746V144.006C73.8063 145.125 74.2177 146.199 74.9493 146.991C75.6808 147.782 76.6727 148.228 77.7073 148.229H163.991C165.026 148.228 166.018 147.783 166.75 146.991C167.481 146.199 167.893 145.126 167.894 144.006V94.746C167.893 93.6262 167.481 92.5526 166.75 91.7608C166.018 90.969 165.026 90.5236 163.991 90.5223L77.7073 90.5229Z" fill="#292A2E"/>
</g>
<g opacity="0.43">
<path d="M122.881 103.713C124.425 103.713 125.676 102.359 125.676 100.688C125.676 99.0172 124.425 97.6628 122.881 97.6628C121.337 97.6628 120.086 99.0172 120.086 100.688C120.086 102.359 121.337 103.713 122.881 103.713Z" fill="#AF2120"/>
<path d="M131.811 103.713C133.354 103.713 134.606 102.359 134.606 100.688C134.606 99.0172 133.354 97.6628 131.811 97.6628C130.267 97.6628 129.015 99.0172 129.015 100.688C129.015 102.359 130.267 103.713 131.811 103.713Z" fill="#AF2120"/>
<path d="M140.74 103.713C142.284 103.713 143.535 102.359 143.535 100.688C143.535 99.0172 142.284 97.6628 140.74 97.6628C139.196 97.6628 137.945 99.0172 137.945 100.688C137.945 102.359 139.196 103.713 140.74 103.713Z" fill="#AF2120"/>
<path d="M149.67 103.713C151.213 103.713 152.465 102.359 152.465 100.688C152.465 99.0172 151.213 97.6628 149.67 97.6628C148.126 97.6628 146.874 99.0172 146.874 100.688C146.874 102.359 148.126 103.713 149.67 103.713Z" fill="#AF2120"/>
<path d="M158.599 103.713C160.143 103.713 161.395 102.359 161.395 100.688C161.395 99.0172 160.143 97.6628 158.599 97.6628C157.056 97.6628 155.804 99.0172 155.804 100.688C155.804 102.359 157.056 103.713 158.599 103.713Z" fill="#AF2120"/>
</g>
<g opacity="0.15">
<path d="M161.395 110.046H120.849V110.691H161.395V110.046Z" fill="#292A2E"/>
</g>
<g opacity="0.15">
<path d="M161.395 116.489H120.849V117.133H161.395V116.489Z" fill="#292A2E"/>
</g>
<g opacity="0.15">
<path d="M142.388 122.931H120.849V123.576H142.388V122.931Z" fill="#292A2E"/>
</g>
<g opacity="0.15">
<path d="M161.692 140.505H147.845V135.732H161.692V140.505ZM148.44 139.861H161.097V136.377H148.44V139.861Z" fill="#292A2E"/>
</g>
<path d="M142.299 136.055H129.047V140.183H142.299V136.055Z" fill="#E59F2E"/>
<path opacity="0.48" d="M110.014 108.928C109.048 107.635 106.921 106.811 104.435 106.157C103.424 105.891 102.74 105.792 102.74 105.792C101.94 107.986 99.4675 109.574 97.2881 109.574H97.1369C94.9574 109.574 92.6125 107.986 91.8121 105.792C91.8121 105.792 91.1275 105.891 90.1155 106.157C87.6298 106.811 85.5019 107.635 84.5366 108.928C83.0525 110.915 80.9755 118.393 80.9755 118.393L86.9973 121.108C87.0437 121.244 87.0894 121.38 87.1342 121.516C87.1664 121.613 87.1981 121.71 87.2295 121.807C87.2265 121.798 87.2232 121.788 87.2202 121.779C87.2277 121.801 87.2351 121.824 87.242 121.847C88.2729 125.142 88.9879 128.542 89.3755 131.994C89.4014 131.985 105.147 131.985 105.173 131.994C105.56 128.542 106.275 125.142 107.306 121.847V121.847C107.314 121.824 107.321 121.802 107.329 121.779C107.357 121.691 107.385 121.604 107.414 121.516C107.459 121.38 107.505 121.244 107.551 121.108L113.573 118.393C113.573 118.393 111.498 110.917 110.014 108.928Z" fill="white"/>
<path d="M110.014 108.928C109.048 107.635 106.921 106.811 104.435 106.157C103.424 105.891 102.74 105.792 102.74 105.792C101.94 107.986 99.4675 109.574 97.2881 109.574H97.1369C94.9574 109.574 92.6125 107.986 91.8121 105.792C91.8121 105.792 91.1275 105.891 90.1155 106.157C87.6298 106.811 85.5019 107.635 84.5366 108.928C83.0525 110.915 80.9755 118.393 80.9755 118.393L86.9973 121.108C87.0437 121.244 87.0894 121.38 87.1342 121.516C87.1664 121.613 87.1981 121.71 87.2295 121.807C87.2265 121.798 87.2232 121.788 87.2202 121.779C87.2277 121.801 87.2351 121.824 87.242 121.847C88.2729 125.142 88.9879 128.542 89.3755 131.994C89.4014 131.985 105.147 131.985 105.173 131.994C105.56 128.542 106.275 125.142 107.306 121.847V121.847C107.314 121.824 107.321 121.802 107.329 121.779C107.357 121.691 107.385 121.604 107.414 121.516C107.459 121.38 107.505 121.244 107.551 121.108L113.573 118.393C113.573 118.393 111.498 110.917 110.014 108.928Z" fill="#E59F2E"/>
<path opacity="0.48" d="M110.014 108.928C109.048 107.635 106.921 106.811 104.435 106.157C103.424 105.891 102.74 105.792 102.74 105.792C101.94 107.986 99.4675 109.574 97.2881 109.574H97.1369C94.9574 109.574 92.6125 107.986 91.8121 105.792C91.8121 105.792 91.1275 105.891 90.1155 106.157C87.6298 106.811 85.5019 107.635 84.5366 108.928C83.0525 110.915 80.9755 118.393 80.9755 118.393L86.9973 121.108C87.0437 121.244 87.0894 121.38 87.1342 121.516C87.1664 121.613 87.1981 121.71 87.2295 121.807C87.2265 121.798 87.2232 121.788 87.2202 121.779C87.2277 121.801 87.2351 121.824 87.242 121.847C88.2729 125.142 88.9879 128.542 89.3755 131.994C89.4014 131.985 105.147 131.985 105.173 131.994C105.56 128.542 106.275 125.142 107.306 121.847V121.847C107.314 121.824 107.321 121.802 107.329 121.779C107.357 121.691 107.385 121.604 107.414 121.516C107.459 121.38 107.505 121.244 107.551 121.108L113.573 118.393C113.573 118.393 111.498 110.917 110.014 108.928Z" fill="white"/>
<g opacity="0.15">
<path d="M163.991 217.271H77.7073C76.5147 217.27 75.3714 216.756 74.5281 215.843C73.6848 214.931 73.2105 213.693 73.2092 212.403V163.144C73.2106 161.853 73.685 160.616 74.5282 159.703C75.3715 158.791 76.5148 158.277 77.7073 158.276H163.991C165.184 158.277 166.327 158.791 167.17 159.703C168.014 160.616 168.488 161.853 168.49 163.144V212.403C168.488 213.693 168.014 214.931 167.171 215.843C166.327 216.756 165.184 217.27 163.991 217.271V217.271ZM77.7073 158.92C76.6726 158.921 75.6807 159.367 74.949 160.159C74.2173 160.95 73.8057 162.024 73.8045 163.144V212.403C73.8056 213.523 74.2171 214.596 74.9488 215.388C75.6805 216.18 76.6725 216.626 77.7073 216.627H163.991C165.026 216.626 166.018 216.18 166.75 215.388C167.482 214.596 167.893 213.523 167.894 212.403V163.144C167.893 162.024 167.481 160.95 166.75 160.159C166.018 159.367 165.026 158.921 163.991 158.92H77.7073Z" fill="#292A2E"/>
</g>
<g opacity="0.43">
<path d="M122.881 172.11C124.425 172.11 125.676 170.756 125.676 169.085C125.676 167.414 124.425 166.06 122.881 166.06C121.337 166.06 120.086 167.414 120.086 169.085C120.086 170.756 121.337 172.11 122.881 172.11Z" fill="#AF2120"/>
<path d="M131.811 172.11C133.354 172.11 134.606 170.756 134.606 169.085C134.606 167.414 133.354 166.06 131.811 166.06C130.267 166.06 129.015 167.414 129.015 169.085C129.015 170.756 130.267 172.11 131.811 172.11Z" fill="#AF2120"/>
<path d="M140.74 172.11C142.284 172.11 143.535 170.756 143.535 169.085C143.535 167.414 142.284 166.06 140.74 166.06C139.196 166.06 137.945 167.414 137.945 169.085C137.945 170.756 139.196 172.11 140.74 172.11Z" fill="#AF2120"/>
<path d="M149.67 172.11C151.213 172.11 152.465 170.756 152.465 169.085C152.465 167.414 151.213 166.06 149.67 166.06C148.126 166.06 146.874 167.414 146.874 169.085C146.874 170.756 148.126 172.11 149.67 172.11Z" fill="#AF2120"/>
<path d="M158.599 172.11C160.143 172.11 161.395 170.756 161.395 169.085C161.395 167.414 160.143 166.06 158.599 166.06C157.056 166.06 155.804 167.414 155.804 169.085C155.804 170.756 157.056 172.11 158.599 172.11Z" fill="#AF2120"/>
</g>
<g opacity="0.15">
<path d="M161.395 178.444H120.849V179.088H161.395V178.444Z" fill="#292A2E"/>
</g>
<g opacity="0.15">
<path d="M161.395 184.886H120.849V185.53H161.395V184.886Z" fill="#292A2E"/>
</g>
<g opacity="0.15">
<path d="M142.388 191.329H120.849V191.973H142.388V191.329Z" fill="#292A2E"/>
</g>
<g opacity="0.15">
<path d="M161.692 208.902H147.845V204.13H161.692V208.902ZM148.44 208.258H161.097V204.774H148.44V208.258Z" fill="#292A2E"/>
</g>
<path d="M142.299 204.452H129.047V208.58H142.299V204.452Z" fill="#E59F2E"/>
<path opacity="0.48" d="M105.574 204.77C105.734 204.77 105.891 204.73 106.034 204.654C106.177 204.578 106.303 204.468 106.401 204.332C106.499 204.196 106.567 204.037 106.6 203.869C106.634 203.7 106.631 203.525 106.592 203.358C105.523 198.547 105.442 189.491 106.364 185.599L107.385 181.292L107.384 181.271C107.401 181.124 107.388 180.974 107.345 180.833C107.301 180.692 107.229 180.563 107.133 180.457C103.273 176.169 103.782 171.766 103.782 171.766H102.118C102.226 172.804 102.163 173.854 101.932 174.868C101.516 176.647 100.407 178.622 97.5962 179.097C96.7029 179.241 95.7948 179.241 94.9015 179.097V179.097C92.0908 178.622 90.982 176.647 90.5653 174.868C90.3347 173.854 90.2719 172.804 90.3798 171.766H88.7169C88.7169 171.766 89.2247 176.169 85.3644 180.456C85.2686 180.563 85.1963 180.691 85.1529 180.833C85.1095 180.974 85.0963 181.124 85.1141 181.271L85.1001 181.291L86.121 185.598C87.0437 189.491 86.9622 198.548 85.8933 203.357C85.8549 203.525 85.8521 203.699 85.8853 203.868C85.9184 204.037 85.9866 204.196 86.0847 204.332C86.1827 204.468 86.3081 204.578 86.4513 204.654C86.5945 204.73 86.7518 204.77 86.9113 204.77L105.574 204.77Z" fill="white"/>
<path d="M105.574 204.77C105.734 204.77 105.891 204.73 106.034 204.654C106.177 204.578 106.303 204.468 106.401 204.332C106.499 204.196 106.567 204.037 106.6 203.869C106.634 203.7 106.631 203.525 106.592 203.358C105.523 198.547 105.442 189.491 106.364 185.599L107.385 181.292L107.384 181.271C107.401 181.124 107.388 180.974 107.345 180.833C107.301 180.692 107.229 180.563 107.133 180.457C103.273 176.169 103.782 171.766 103.782 171.766H102.118C102.226 172.804 102.163 173.854 101.932 174.868C101.516 176.647 100.407 178.622 97.5962 179.097C96.7029 179.241 95.7948 179.241 94.9015 179.097V179.097C92.0908 178.622 90.982 176.647 90.5653 174.868C90.3347 173.854 90.2719 172.804 90.3798 171.766H88.7169C88.7169 171.766 89.2247 176.169 85.3644 180.456C85.2686 180.563 85.1963 180.691 85.1529 180.833C85.1095 180.974 85.0963 181.124 85.1141 181.271L85.1001 181.291L86.121 185.598C87.0437 189.491 86.9622 198.548 85.8933 203.357C85.8549 203.525 85.8521 203.699 85.8853 203.868C85.9184 204.037 85.9866 204.196 86.0847 204.332C86.1827 204.468 86.3081 204.578 86.4513 204.654C86.5945 204.73 86.7518 204.77 86.9113 204.77L105.574 204.77Z" fill="#E59F2E"/>
<path opacity="0.48" d="M105.574 204.77C105.734 204.77 105.891 204.73 106.034 204.654C106.177 204.578 106.303 204.468 106.401 204.332C106.499 204.196 106.567 204.037 106.6 203.869C106.634 203.7 106.631 203.525 106.592 203.358C105.523 198.547 105.442 189.491 106.364 185.599L107.385 181.292L107.384 181.271C107.401 181.124 107.388 180.974 107.345 180.833C107.301 180.692 107.229 180.563 107.133 180.457C103.273 176.169 103.782 171.766 103.782 171.766H102.118C102.226 172.804 102.163 173.854 101.932 174.868C101.516 176.647 100.407 178.622 97.5962 179.097C96.7029 179.241 95.7948 179.241 94.9015 179.097V179.097C92.0908 178.622 90.982 176.647 90.5653 174.868C90.3347 173.854 90.2719 172.804 90.3798 171.766H88.7169C88.7169 171.766 89.2247 176.169 85.3644 180.456C85.2686 180.563 85.1963 180.691 85.1529 180.833C85.1095 180.974 85.0963 181.124 85.1141 181.271L85.1001 181.291L86.121 185.598C87.0437 189.491 86.9622 198.548 85.8933 203.357C85.8549 203.525 85.8521 203.699 85.8853 203.868C85.9184 204.037 85.9866 204.196 86.0847 204.332C86.1827 204.468 86.3081 204.578 86.4513 204.654C86.5945 204.73 86.7518 204.77 86.9113 204.77L105.574 204.77Z" fill="white"/>
<path d="M201.956 267.997C201.956 267.997 200.612 275.534 194.09 275.956C187.567 276.377 188.982 281.999 188.982 281.999H213.907V268.522L201.956 267.997Z" fill="#AF2120"/>
<path d="M209.644 130.471C209.644 130.471 209.566 128.205 209.583 133.346C209.644 152.522 209.952 174.425 210.703 187.242C211.911 207.847 215.007 272.808 215.007 272.808L198.628 272.659L182.754 129.692L209.644 130.471Z" fill="#262626"/>
<path d="M191.148 153.083C191.148 153.083 190.469 166.999 190.345 170.265C190.054 177.821 189.952 185.644 189.952 194.513L187.371 171.262C187.371 171.262 189.259 163.976 191.148 153.083Z" fill="#0A0A0A"/>
<path d="M172.798 267.997C172.798 267.997 171.454 275.534 164.931 275.956C158.409 276.377 159.823 281.999 159.823 281.999H184.748V268.522L172.798 267.997Z" fill="#AF2120"/>
<path d="M164.867 131.96C164.867 131.96 163.417 197.499 163.629 200.702L169.72 272.311L185.828 272.633L184.259 198.111C184.259 198.111 185.365 177.554 189.955 158.466C192.303 148.669 193.716 138.637 194.172 128.528L164.867 131.96Z" fill="#262626"/>
<path d="M209.822 130.47L209.876 130.473C209.876 130.473 209.837 129.354 209.822 130.47Z" fill="#333333"/>
<path d="M162.562 95.5834C162.9 99.878 164.543 126.671 164.867 131.961H209.627C209.88 127.19 211.015 106.328 211.974 96.9985C212.89 88.0956 214.685 83.638 213.369 81.0062C211.218 76.7046 205.341 74.2187 201.333 73.6315C198.886 73.2729 195.205 73.0159 195.205 73.0159C195.205 73.0159 194.893 79.8376 187.461 80.218C177.346 80.7334 178.021 73.0156 177.971 73.0156C176.332 73.0156 166.789 73.8496 164.68 75.6074C160.991 78.6811 161.845 86.4811 162.562 95.5834Z" fill="#AF2120"/>
<path d="M161.943 90.2007C161.905 90.2008 161.869 90.1851 161.841 90.1569C161.813 90.1286 161.797 90.09 161.794 90.049L161.433 83.2292C161.431 83.1866 161.444 83.1447 161.471 83.1128C161.497 83.081 161.534 83.0616 161.573 83.0591C161.612 83.0571 161.651 83.0718 161.68 83.1001C161.71 83.1284 161.728 83.1681 161.73 83.2106L162.091 90.0303C162.094 90.0729 162.08 90.1148 162.054 90.1467C162.028 90.1786 161.991 90.1979 161.951 90.2004L161.943 90.2007Z" fill="#0C0C0C"/>
<path d="M219.303 131.68C220.619 131.679 221.916 131.335 223.083 130.676C224.25 130.016 225.253 129.062 226.006 127.893C226.758 126.724 227.239 125.376 227.407 123.963C227.574 122.55 227.424 121.114 226.969 119.777C226.507 118.42 215.666 87.3528 213.602 81.5964L198.321 88.2967C199.482 91.5334 203.685 103.801 207.063 113.684L201.452 113.024L199.686 130.608L218.418 131.628C218.712 131.662 219.007 131.68 219.303 131.68Z" fill="#AF2120"/>
<path d="M172.638 72.4265C172.688 72.4194 174.062 78.0108 184.776 77.1408C192.194 76.5394 194.003 71.0751 194.172 71.0751C193.373 70.8912 192.074 70.7002 191.719 70.4953C190.551 69.8163 189.7 68.9894 189.272 67.2151C188.937 65.8274 188.766 60.4856 188.766 57.8055L177.352 60.5812C177.511 63.6044 178.624 70.6132 174.721 71.8537C174.072 72.0586 173.373 72.2474 172.638 72.4265Z" fill="#E98862"/>
<path d="M177.747 66.5248C182.247 66.9088 188.027 64.853 189.125 58.356L190.115 52.4933C191.213 45.9963 188.95 40.1053 183.298 38.9866C177.645 37.8678 172.53 42.2983 171.432 48.7953L170.994 51.3907C170.572 53.8839 169.718 65.8393 177.747 66.5248Z" fill="#E98862"/>
<path d="M173.575 60.5597C174.382 56.1675 174.753 53.2374 174.709 50.146C173.572 47.9877 173.871 45.5074 174.13 44.4366C173.346 44.9753 172.425 45.231 171.499 45.1669C171.499 45.1669 173.38 36.9952 179.775 34.7964C180.951 34.3009 183.953 33.6754 187.94 34.2671C191.33 34.7703 199.689 37.5141 200.883 47.6972V47.703C200.922 48.0406 201.725 57.4231 203.323 61.9249C205.474 67.9766 208.494 69.8569 208.417 76.8393C208.319 85.8205 193.062 87.0159 183.861 86.344C174.66 85.672 169.522 82.3976 169.454 75.9251C169.381 68.6731 171.958 69.3466 173.575 60.5597Z" fill="#0A0A0A"/>
<path d="M210.582 97.1776L209.482 131.956L209.78 131.967L210.88 97.1887L210.582 97.1776Z" fill="#0C0C0C"/>
<path d="M113.485 57.4241L118.295 63.5722L117.998 62.5166C117.908 62.1738 117.942 61.8069 118.092 61.49C118.243 61.1731 118.499 60.9298 118.808 60.8093C118.97 60.7531 119.141 60.7333 119.311 60.7509C119.48 60.7686 119.644 60.8234 119.793 60.912C119.942 61.0006 120.073 61.1211 120.178 61.2662C120.282 61.4113 120.358 61.578 120.401 61.756L122.6 70.7169C122.878 71.8481 122.736 73.052 122.205 74.0716C121.674 75.0913 120.796 75.846 119.758 76.1747C118.553 76.5566 117.27 76.5402 116.074 76.1278C114.877 75.7154 113.822 74.9257 113.043 73.8599L109.522 69.0251C109.335 68.7778 109.232 68.4679 109.232 68.1481C109.231 67.8282 109.333 67.518 109.519 67.2699C109.692 67.0494 109.925 66.8946 110.185 66.828C110.445 66.7614 110.717 66.7865 110.963 66.8997C110.967 66.8844 110.973 66.87 110.982 66.8574C110.991 66.8449 111.002 66.8344 111.015 66.8267C111.028 66.819 111.042 66.8143 111.057 66.8127C111.072 66.8111 111.086 66.8128 111.1 66.8176L110.448 65.9253C110.248 65.6637 110.143 65.3327 110.151 64.9935C110.159 64.6542 110.28 64.3296 110.492 64.0795C110.709 63.8392 111.001 63.6948 111.311 63.6744C111.621 63.6541 111.926 63.7592 112.169 63.9694C112.17 63.955 112.175 63.9412 112.181 63.9285L111.913 63.5625C111.738 63.3119 111.643 63.007 111.64 62.6931C111.638 62.3791 111.729 62.0727 111.9 61.8192C112.11 61.5462 112.409 61.3727 112.735 61.3358C113.061 61.299 113.387 61.4017 113.644 61.622L113.661 61.6037L111.64 59.0205C111.536 58.8881 111.459 58.7342 111.412 58.5681C111.365 58.4021 111.35 58.2275 111.367 58.055C111.385 57.8824 111.435 57.7155 111.514 57.5645C111.593 57.4135 111.7 57.2816 111.828 57.1767C112.081 56.983 112.394 56.9008 112.701 56.9468C113.009 56.9927 113.289 57.1633 113.485 57.4241Z" fill="#E98862"/>
<path opacity="0.2" d="M113.594 61.7657C113.599 61.7795 113.606 61.7923 113.616 61.8033L115.605 64.2879C115.627 64.3085 115.655 64.32 115.684 64.3202C115.712 64.3203 115.74 64.3092 115.762 64.2888C115.784 64.2685 115.798 64.2403 115.802 64.2094C115.806 64.1786 115.8 64.1472 115.784 64.121L113.794 61.6368C113.776 61.6143 113.751 61.5994 113.724 61.5947C113.696 61.59 113.668 61.5959 113.645 61.6113C113.621 61.6266 113.603 61.6505 113.594 61.6787C113.585 61.707 113.585 61.7377 113.595 61.7657H113.594Z" fill="#0C0C0C"/>
<path opacity="0.2" d="M112.171 64.0273C112.176 64.0408 112.183 64.0533 112.192 64.0644L113.742 66.0293C113.763 66.049 113.791 66.0598 113.819 66.0597C113.847 66.0596 113.874 66.0486 113.896 66.0288C113.917 66.0089 113.932 65.9814 113.936 65.9513C113.941 65.9211 113.935 65.8902 113.92 65.8641L112.37 63.8991C112.352 63.8779 112.327 63.8642 112.3 63.8603C112.273 63.8563 112.246 63.8623 112.223 63.8773C112.2 63.8923 112.182 63.9154 112.172 63.9427C112.163 63.9701 112.162 64.0002 112.171 64.028L112.171 64.0273Z" fill="#0C0C0C"/>
<path opacity="0.2" d="M110.962 66.9839C110.967 66.9985 110.974 67.0118 110.984 67.0232L111.736 67.9332C111.745 67.9488 111.758 67.9621 111.772 67.972C111.787 67.982 111.803 67.9884 111.82 67.9909C111.837 67.9934 111.854 67.9918 111.871 67.9863C111.887 67.9809 111.902 67.9716 111.915 67.9592C111.928 67.9468 111.938 67.9315 111.945 67.9145C111.952 67.8974 111.955 67.8789 111.955 67.8603C111.955 67.8417 111.95 67.8234 111.943 67.8067C111.935 67.79 111.925 67.7752 111.911 67.7634L111.159 66.8534C111.14 66.8331 111.115 66.8203 111.089 66.8169C111.063 66.8136 111.036 66.8199 111.013 66.8349C110.99 66.85 110.973 66.8728 110.964 66.8998C110.954 66.9268 110.954 66.9564 110.962 66.9839V66.9839Z" fill="#0C0C0C"/>
<path d="M137.228 115.314C135.714 115.314 134.225 114.89 132.907 114.084C131.589 113.277 130.486 112.116 129.705 110.712L110.242 75.7195L125.288 65.9178L140.084 92.5193L164.68 75.6077L175.099 90.7274L141.981 113.801C140.563 114.788 138.914 115.313 137.228 115.314V115.314Z" fill="#AF2120"/>
<path d="M162.811 99.4422C162.777 99.4422 162.745 99.43 162.719 99.4077C162.693 99.3854 162.674 99.3542 162.666 99.3191C162.659 99.2841 162.662 99.2472 162.676 99.2144C162.689 99.1816 162.713 99.1547 162.743 99.1381L166.993 96.765C167.028 96.7454 167.068 96.7417 167.106 96.7547C167.144 96.7677 167.175 96.7963 167.193 96.8343C167.211 96.8723 167.215 96.9165 167.203 96.9572C167.191 96.9979 167.164 97.0318 167.129 97.0514L162.879 99.4245C162.858 99.4362 162.835 99.4423 162.811 99.4422V99.4422Z" fill="#0C0C0C"/>
<path d="M95.1459 281.615H84.606L80.34 234.87H90.8799L95.1459 281.615Z" fill="#AF2120"/>
<path opacity="0.21" d="M95.1459 281.615H84.606L80.34 234.87H90.8799L95.1459 281.615Z" fill="#0A0A0A"/>
<path d="M84.606 281.615H43.5831L47.8491 234.87H80.3401L84.606 281.615Z" fill="#AF2120"/>
<path d="M64.095 253.997C62.8938 253.997 61.7043 253.741 60.5945 253.244C59.4848 252.746 58.4764 252.017 57.627 251.098C56.7777 250.178 56.1039 249.087 55.6443 247.886C55.1846 246.685 54.948 245.398 54.9481 244.098V239.864C54.9465 239.791 54.9582 239.72 54.9826 239.652C55.0071 239.585 55.0437 239.524 55.0904 239.472C55.137 239.42 55.1928 239.379 55.2544 239.351C55.3159 239.323 55.3821 239.308 55.4489 239.308C55.5157 239.308 55.5818 239.323 55.6434 239.351C55.705 239.379 55.7607 239.42 55.8074 239.472C55.8541 239.524 55.8907 239.585 55.9151 239.652C55.9396 239.72 55.9513 239.791 55.9497 239.864V244.097C55.9497 246.435 56.8079 248.677 58.3354 250.33C59.8629 251.983 61.9347 252.912 64.095 252.912C66.2552 252.912 68.327 251.983 69.8546 250.33C71.3821 248.677 72.2403 246.435 72.2403 244.097V239.864C72.2403 239.72 72.293 239.582 72.387 239.48C72.4809 239.379 72.6084 239.322 72.7412 239.322C72.8741 239.322 73.0015 239.379 73.0954 239.48C73.1894 239.582 73.2422 239.72 73.2422 239.864V244.097C73.2396 246.722 72.275 249.238 70.5602 251.094C68.8453 252.95 66.5202 253.994 64.095 253.997V253.997Z" fill="white"/>
<path opacity="0.08" d="M80.34 234.87L86.1588 241.012L90.8799 234.87H80.34Z" fill="#0A0A0A"/>
<path opacity="0.08" d="M84.606 281.615L89.3134 275.473L95.1459 281.615H84.606Z" fill="#0A0A0A"/>
<path d="M224.046 282.248H0.368854C0.337962 282.249 0.307163 282.244 0.278295 282.232C0.249428 282.22 0.223084 282.202 0.200836 282.179C0.178588 282.155 0.160894 282.127 0.148808 282.097C0.136722 282.066 0.130493 282.033 0.130493 281.999C0.130493 281.966 0.136722 281.933 0.148808 281.902C0.160894 281.871 0.178588 281.843 0.200836 281.82C0.223084 281.797 0.249428 281.779 0.278295 281.767C0.307163 281.755 0.337962 281.749 0.368854 281.75H224.046C224.077 281.749 224.108 281.755 224.137 281.767C224.166 281.779 224.192 281.797 224.214 281.82C224.236 281.843 224.254 281.871 224.266 281.902C224.278 281.933 224.285 281.966 224.285 281.999C224.285 282.033 224.278 282.066 224.266 282.097C224.254 282.127 224.236 282.155 224.214 282.179C224.192 282.202 224.166 282.22 224.137 282.232C224.108 282.244 224.077 282.249 224.046 282.248V282.248Z" fill="#3F3F3F"/>
</svg>
