<svg width="332" height="267" viewBox="0 0 332 267" fill="none" xmlns="http://www.w3.org/2000/svg">
<g clip-path="url(#clip0_7_45)">
<path d="M310.084 2.10785H188.394C176.525 2.10785 166.903 12.4476 166.903 25.2024V25.2029C166.903 37.9577 176.525 48.2975 188.394 48.2975H310.084C321.953 48.2975 331.575 37.9577 331.575 25.2029V25.2024C331.575 12.4476 321.953 2.10785 310.084 2.10785Z" fill="white"/>
<path d="M310.084 48.7533H188.394C182.6 48.7241 177.052 46.23 172.964 41.8166C168.876 37.4032 166.581 31.4296 166.581 25.2027C166.581 18.9757 168.876 13.0022 172.964 8.58874C177.052 4.1753 182.6 1.6812 188.394 1.65199H310.084C312.971 1.63744 315.832 2.23586 318.502 3.41287C321.173 4.58989 323.601 6.32231 325.647 8.51064C327.693 10.699 329.317 13.3001 330.425 16.1646C331.532 19.0291 332.103 22.1006 332.103 25.2027C332.103 28.3047 331.532 31.3762 330.425 34.2407C329.317 37.1052 327.693 39.7064 325.647 41.8947C323.601 44.083 321.173 45.8154 318.502 46.9925C315.832 48.1695 312.971 48.7679 310.084 48.7533V48.7533ZM188.394 2.56374C182.807 2.56374 177.449 4.94882 173.498 9.1943C169.547 13.4398 167.328 19.1979 167.328 25.2019C167.328 31.2059 169.547 36.964 173.498 41.2095C177.449 45.455 182.807 47.84 188.394 47.84H310.084C315.671 47.84 321.03 45.455 324.98 41.2095C328.931 36.964 331.151 31.2059 331.151 25.2019C331.151 19.1979 328.931 13.4398 324.98 9.1943C321.03 4.94882 315.671 2.56374 310.084 2.56374H188.394Z" fill="#262626"/>
<path d="M189.383 13.0679L193.006 20.7701L200.954 22.0854L195.268 27.9879L196.704 36.4256L189.567 32.3715L182.506 36.2707L183.782 27.8625L177.982 21.8352L185.907 20.6929L189.383 13.0679Z" fill="#E59F2E"/>
<path d="M218.898 13.0679L222.52 20.7701L230.469 22.0854L224.783 27.9879L226.219 36.4256L219.082 32.3715L212.021 36.2707L213.297 27.8625L207.497 21.8352L215.422 20.6929L218.898 13.0679Z" fill="#E59F2E"/>
<path d="M248.413 13.0679L252.036 20.7701L259.984 22.0854L254.298 27.9879L255.734 36.4256L248.597 32.3715L241.536 36.2707L242.811 27.8625L237.012 21.8352L244.937 20.6929L248.413 13.0679Z" fill="#E59F2E"/>
<path d="M277.928 13.0679L281.551 20.7701L289.499 22.0854L283.813 27.9879L285.249 36.4256L278.112 32.3715L271.051 36.2707L272.327 27.8625L266.526 21.8352L274.452 20.6929L277.928 13.0679Z" fill="#E59F2E"/>
<path opacity="0.2" d="M307.443 13.0679L311.066 20.7701L319.014 22.0854L313.328 27.9879L314.764 36.4256L307.627 32.3715L300.566 36.2707L301.842 27.8625L296.042 21.8352L303.967 20.6929L307.443 13.0679Z" fill="#367CFF"/>
<path d="M88.7002 54.5682C88.7002 54.5682 87.3904 71.2345 83.7971 77.2219C73.4523 94.4585 70.2152 114.009 80.1179 124.444C90.0206 134.879 154.256 136.243 159.511 112.776C163.935 93.0194 155.178 90.7194 153.309 74.3158C152.463 66.8939 150.056 51.3186 150.056 51.3186" fill="#0A0A0A"/>
<path d="M143.511 108.757C143.399 108.742 142.169 130.686 118.446 128.773C102.023 127.451 96.167 108.725 95.7886 108.725C97.5593 108.32 100.541 107.732 101.328 107.281C103.914 105.788 107.112 104.234 107.947 98.8375C108.429 95.7293 107.612 79.8142 107.864 76.6656L133.073 82.7121C132.721 89.3585 130.255 104.767 138.896 107.494C140.336 107.949 141.885 108.363 143.511 108.757Z" fill="#E98862"/>
<path opacity="0.5" d="M133.428 101.2C133.033 99.8328 132.779 98.4229 132.67 96.9959C132.393 93.7394 132.448 90.46 132.835 87.2164C127.711 86.4731 122.885 84.2006 118.903 80.657C118.435 82.5147 115.861 90.6323 116.574 92.3978C117.92 95.7329 124.25 101.2 133.428 101.2Z" fill="#0C0C0C"/>
<path d="M129.838 94.3611C119.883 95.205 107.096 90.6883 104.667 76.4164L102.475 63.5391C100.046 49.2672 105.053 36.3266 117.558 33.8691C130.062 31.4115 141.378 41.1439 143.807 55.4157L144.777 61.1172C145.71 66.5934 147.599 92.8552 129.838 94.3611Z" fill="#E98862"/>
<path d="M133.902 74.622L133.926 74.6178C134.433 74.5142 134.934 74.3807 135.426 74.2179C136.163 73.9687 137.127 73.5553 137.006 72.8415C136.867 72.0281 133.301 63.6619 132.895 62.7102C132.858 62.6303 132.793 62.569 132.715 62.5393C132.636 62.5096 132.55 62.5139 132.474 62.5512C132.399 62.5885 132.339 62.6559 132.309 62.7392C132.279 62.8225 132.28 62.9152 132.312 62.9978C133.833 66.5608 136.281 72.4182 136.374 72.9658C136.29 73.2186 135.068 73.691 133.811 73.9397C133.73 73.9566 133.658 74.0062 133.611 74.0783C133.563 74.1504 133.543 74.2395 133.554 74.3272C133.566 74.4148 133.609 74.4943 133.673 74.5492C133.738 74.604 133.82 74.6301 133.902 74.622V74.622Z" fill="#0C0C0C"/>
<path d="M132.017 80.7643C134.056 80.4933 136.007 79.7113 137.713 78.4813C137.785 78.4319 137.835 78.354 137.853 78.2647C137.871 78.1754 137.856 78.0821 137.81 78.0052C137.764 77.9283 137.691 77.8742 137.608 77.8548C137.525 77.8354 137.438 77.8522 137.367 77.9016C133.675 80.4514 130.019 80.844 126.794 79.0361C126.729 78.9975 126.662 78.9629 126.593 78.9325C126.513 78.901 126.425 78.9048 126.348 78.9432C126.271 78.9816 126.211 79.0513 126.181 79.1371C126.152 79.2229 126.156 79.3177 126.191 79.4007C126.227 79.4837 126.292 79.548 126.372 79.5795C126.397 79.5909 126.439 79.6153 126.498 79.6484C128.193 80.6021 130.115 80.9906 132.017 80.7643V80.7643Z" fill="#0C0C0C"/>
<path d="M92.4575 67.9558L103.667 65.8236C112.167 62.1927 114.822 46.4351 114.822 46.4351C114.822 46.4351 125.061 57.2905 150.056 51.3202C150.056 51.3202 145.266 13.8802 108.327 24.5134C96.4168 27.9417 87.8094 40.7616 88.774 57.9785C89.4499 70.042 92.4575 67.9558 92.4575 67.9558Z" fill="#0A0A0A"/>
<path d="M106.184 80.612C102.383 81.359 98.5591 77.5954 97.8639 73.5118C97.1688 69.4281 99.8665 66.5701 103.667 65.8236L106.09 68.175L109.451 79.9696L106.184 80.612Z" fill="#E98862"/>
<path d="M135.689 56.1467C136.648 55.4452 137.762 55.0289 138.919 54.9402C139.501 54.8915 140.086 54.9373 140.655 55.0759C141.228 55.2132 141.784 55.4272 142.308 55.7131L142.324 55.7214C142.382 55.7495 142.448 55.7523 142.508 55.7292C142.568 55.7061 142.617 55.6588 142.646 55.5974C142.674 55.536 142.678 55.4653 142.659 55.4002C142.639 55.3351 142.597 55.2807 142.541 55.2485C141.986 54.9198 141.395 54.6676 140.781 54.4978C140.163 54.3241 139.525 54.2511 138.887 54.2813C137.594 54.3335 136.338 54.7577 135.25 55.5095C135.209 55.538 135.174 55.5748 135.147 55.6178C135.12 55.6608 135.101 55.7091 135.091 55.76C135.081 55.8109 135.081 55.8634 135.09 55.9144C135.099 55.9655 135.117 56.0142 135.144 56.0576C135.17 56.1011 135.204 56.1385 135.244 56.1678C135.284 56.197 135.329 56.2175 135.377 56.2281C135.424 56.2387 135.473 56.2392 135.52 56.2295C135.568 56.2198 135.613 56.2001 135.654 56.1716L135.662 56.1654L135.689 56.1467Z" fill="#0C0C0C"/>
<path d="M125.46 57.4677C124.195 57.1726 122.88 57.2473 121.652 57.6842C121.044 57.896 120.47 58.2046 119.948 58.5996C119.428 58.989 118.956 59.4475 118.543 59.9641C118.521 59.9893 118.503 60.0189 118.492 60.0513C118.48 60.0836 118.475 60.1181 118.476 60.1527C118.478 60.2227 118.505 60.289 118.553 60.3371C118.6 60.3852 118.663 60.4111 118.728 60.4092C118.793 60.4072 118.855 60.3776 118.9 60.3267L118.913 60.3122C119.31 59.8474 119.761 59.4382 120.254 59.0943C120.742 58.75 121.275 58.4869 121.836 58.3142C122.95 57.9616 124.131 57.9324 125.259 58.2297L125.287 58.2375C125.381 58.264 125.482 58.2491 125.566 58.196C125.65 58.1429 125.711 58.056 125.736 57.9544C125.761 57.8528 125.747 57.7448 125.697 57.6542C125.648 57.5636 125.567 57.4978 125.473 57.4713L125.46 57.4677Z" fill="#0C0C0C"/>
<path d="M132.431 84.0036C132.801 83.961 133.166 83.8846 133.524 83.7751C133.606 83.7504 133.675 83.6917 133.717 83.612C133.758 83.5323 133.769 83.4381 133.746 83.3501C133.723 83.2621 133.668 83.1875 133.594 83.1427C133.52 83.098 133.432 83.0868 133.35 83.1115C131.2 83.7611 129.984 82.8737 129.933 82.8354C129.863 82.7824 129.777 82.7612 129.694 82.7764C129.61 82.7916 129.535 82.842 129.486 82.9165C129.436 82.9909 129.417 83.0834 129.431 83.1735C129.445 83.2636 129.492 83.344 129.561 83.3969C130.424 83.9496 131.438 84.164 132.431 84.0036V84.0036Z" fill="#0C0C0C"/>
<path d="M103.677 65.6267C111.236 62.7672 113.82 57.2413 114.656 53.1089C115.197 50.3528 115.197 47.5055 114.656 44.7494L114.422 44.8136C114.955 47.5339 114.954 50.3438 114.417 53.0633C113.592 57.1278 111.043 62.5641 103.596 65.3833L103.677 65.6267Z" fill="#0C0C0C"/>
<path opacity="0.1" d="M123.829 75.6038C125.468 75.4252 126.698 74.2333 126.576 72.9416C126.454 71.6499 125.027 70.7475 123.388 70.926C121.749 71.1046 120.519 72.2965 120.641 73.5882C120.763 74.8799 122.19 75.7823 123.829 75.6038Z" fill="#0C0C0C"/>
<path opacity="0.1" d="M141.194 70.7807C141.319 72.0706 142.746 72.972 144.385 72.7958C144.669 72.7648 144.948 72.7023 145.219 72.6093C145.321 71.076 145.349 69.5996 145.33 68.2319C144.878 68.1013 144.407 68.0627 143.942 68.118C142.303 68.2941 141.074 69.4856 141.194 70.7807Z" fill="#0C0C0C"/>
<path d="M68.9897 239.14L66.1431 266.227H169.354L167.762 238.969L68.9897 239.14Z" fill="#262626"/>
<path d="M117.902 123.319C101.467 122.487 100.775 107.496 100.775 107.496C100.775 107.496 92.632 108.062 87.2183 108.849C78.3559 110.137 68.9608 113.408 64.6969 121.326C61.6319 127.02 60.8938 128.05 63.6821 160.179C65.701 183.442 68.9897 239.141 68.9897 239.141L167.762 238.97C167.762 238.97 172.158 167.541 172.987 157.068C174.57 137.078 177.068 108.902 171.765 107.495C165.587 105.857 145.421 108.551 138.899 107.495C138.788 107.48 140.283 124.453 117.902 123.319Z" fill="#AF2120"/>
<path d="M292.956 44.9624C293.1 44.6137 293.309 44.3001 293.569 44.0409C293.829 43.7816 294.136 43.582 294.47 43.4543C294.805 43.3266 295.16 43.2735 295.514 43.2982C295.868 43.3229 296.214 43.4248 296.53 43.5979C297.132 43.9554 297.584 44.5451 297.796 45.2476C298.009 45.9501 297.965 46.7131 297.674 47.3821L296.244 50.8483L305.427 42.1344C306.432 41.1465 308.254 40.6248 309.211 41.9096C309.609 42.3781 309.847 42.9778 309.887 43.6106C309.927 44.2434 309.766 44.872 309.43 45.3939C309.442 45.4021 309.454 45.4118 309.464 45.4229C309.469 45.4319 309.474 45.4412 309.479 45.4509L311.029 43.9273C311.314 43.6471 311.654 43.4384 312.024 43.3163C312.393 43.1942 312.784 43.1618 313.166 43.2212C313.549 43.2807 313.915 43.4306 314.237 43.6602C314.559 43.8898 314.83 44.1933 315.03 44.549C315.338 45.1237 315.451 45.795 315.351 46.4493C315.251 47.1036 314.944 47.7007 314.481 48.1395L313.822 48.7875C313.831 48.8176 313.835 48.8492 313.833 48.8808C314.368 48.5565 314.992 48.4452 315.595 48.5663C316.199 48.6873 316.743 49.0331 317.133 49.5428C317.55 50.1297 317.745 50.865 317.677 51.6001C317.609 52.3351 317.284 53.0149 316.767 53.5022L315.146 55.0957C315.184 55.0904 315.222 55.095 315.259 55.1091C315.295 55.1231 315.327 55.1462 315.353 55.1765C315.383 55.2139 315.401 55.2599 315.407 55.3086C315.948 55.1648 316.518 55.211 317.033 55.4403C317.548 55.6696 317.981 56.07 318.27 56.5829C318.577 57.1576 318.691 57.829 318.591 58.4833C318.491 59.1376 318.184 59.7347 317.721 60.1734L303.899 73.761C301.965 75.6617 299.546 76.8984 296.954 77.3126C294.362 77.7268 291.714 77.2997 289.349 76.0859L281.735 72.1779L292.956 44.9624Z" fill="#E98862"/>
<g opacity="0.2">
<path d="M300.383 54.0694C300.426 54.1193 300.486 54.1491 300.549 54.1524C300.612 54.1557 300.674 54.1322 300.721 54.087L309.443 45.7886C309.467 45.7661 309.486 45.7387 309.5 45.7081C309.514 45.6775 309.522 45.6443 309.524 45.6104C309.526 45.5764 309.522 45.5424 309.512 45.5102C309.501 45.478 309.485 45.4483 309.464 45.4229C309.443 45.3974 309.418 45.3766 309.389 45.3617C309.361 45.3468 309.33 45.3381 309.298 45.336C309.267 45.3339 309.235 45.3386 309.205 45.3496C309.175 45.3607 309.147 45.378 309.124 45.4006L300.398 53.6995C300.375 53.7221 300.355 53.7495 300.341 53.7801C300.328 53.8107 300.32 53.8439 300.318 53.8779C300.316 53.9118 300.32 53.9459 300.33 53.978C300.341 54.0102 300.357 54.0398 300.378 54.0653L300.383 54.0694Z" fill="#0C0C0C"/>
</g>
<g opacity="0.2">
<path d="M303.684 58.3044C303.726 58.3543 303.786 58.3842 303.849 58.3876C303.912 58.391 303.974 58.3676 304.021 58.3225L313.756 49.0606C313.779 49.038 313.799 49.0107 313.812 48.9801C313.826 48.9495 313.834 48.9163 313.836 48.8823C313.838 48.8483 313.834 48.8143 313.824 48.7821C313.813 48.75 313.797 48.7203 313.776 48.6948C313.733 48.6454 313.673 48.6157 313.61 48.6116C313.547 48.6076 313.485 48.6295 313.436 48.6731L303.701 57.9345C303.677 57.9571 303.658 57.9845 303.644 58.0151C303.63 58.0457 303.622 58.0789 303.62 58.1129C303.618 58.1468 303.623 58.1809 303.633 58.213C303.644 58.2452 303.66 58.2748 303.681 58.3002L303.684 58.3044Z" fill="#0C0C0C"/>
</g>
<g opacity="0.2">
<path d="M307.233 62.9134C307.275 62.9633 307.335 62.9932 307.398 62.9966C307.461 63 307.523 62.9766 307.57 62.9315L315.336 55.5438C315.384 55.4982 315.413 55.434 315.416 55.3653C315.42 55.2967 315.399 55.2292 315.356 55.1778C315.314 55.1263 315.254 55.0951 315.19 55.091C315.126 55.0869 315.063 55.1102 315.016 55.1558L307.25 62.5435C307.227 62.566 307.207 62.5934 307.193 62.624C307.18 62.6545 307.171 62.6878 307.17 62.7217C307.168 62.7557 307.172 62.7897 307.182 62.8219C307.193 62.8541 307.209 62.8837 307.23 62.9092L307.233 62.9134Z" fill="#0C0C0C"/>
</g>
<path d="M284.153 54.5682L231.807 100.647L159.347 107.672C154.7 108.09 150.383 110.422 147.299 114.18C144.214 117.938 142.601 122.832 142.795 127.838C142.989 132.845 144.975 137.577 148.34 141.047C151.705 144.516 156.187 146.455 160.85 146.456C161.361 146.456 161.875 146.433 162.393 146.386L240.541 138.844C244.242 138.508 247.758 136.954 250.608 134.394L305.43 82.1314L284.153 54.5682Z" fill="#AF2120"/>
<path d="M289.663 42.2525L300.565 38.9692L304.427 27.5139L310.473 37.5757L321.725 37.743L314.56 47.2448L317.652 58.8037L307.178 54.6139L297.837 61.5902L298.529 49.4993L289.663 42.2525Z" fill="#FABC1D"/>
<path d="M295.762 52.1428L297.674 47.3821C297.965 46.713 298.009 45.9501 297.796 45.2476C297.584 44.5451 297.132 43.9554 296.53 43.5978C296.214 43.4248 295.868 43.3229 295.514 43.2982C295.16 43.2735 294.805 43.3266 294.47 43.4543C294.136 43.582 293.829 43.7816 293.569 44.0409C293.309 44.3001 293.1 44.6137 292.957 44.9623" fill="#E98862"/>
<path d="M159.096 194.994C159.044 195.73 158.733 196.418 158.227 196.917C157.72 197.415 157.056 197.689 156.369 197.681L154.172 197.709C154.204 197.732 154.229 197.763 154.247 197.799C154.265 197.835 154.274 197.876 154.275 197.916C154.275 197.966 154.261 198.014 154.234 198.055C154.727 198.336 155.123 198.778 155.364 199.319C155.606 199.859 155.68 200.468 155.576 201.057C155.448 201.705 155.115 202.287 154.634 202.702C154.154 203.118 153.554 203.344 152.937 203.34L134.209 203.558C131.588 203.59 129.018 202.78 126.829 201.232C124.64 199.684 122.932 197.468 121.923 194.868L118.668 186.499L128.635 184.22L128.873 181.55L143.922 174.255C144.245 174.098 144.595 174.014 144.95 174.007C145.305 174 145.657 174.071 145.985 174.215C146.314 174.359 146.612 174.574 146.86 174.846C147.109 175.118 147.303 175.441 147.432 175.797C147.658 176.494 147.63 177.258 147.353 177.934C147.075 178.61 146.57 179.147 145.938 179.438L142.719 180.996L154.97 181.085C156.334 181.068 158.015 181.984 157.931 183.623C157.938 184.258 157.744 184.876 157.382 185.377C157.019 185.878 156.509 186.232 155.935 186.381C155.935 186.397 155.938 186.409 155.939 186.425L155.931 186.455L158.032 186.431C158.42 186.426 158.803 186.514 159.155 186.688C159.507 186.862 159.818 187.118 160.067 187.437C160.315 187.756 160.495 188.13 160.592 188.533C160.689 188.936 160.702 189.357 160.629 189.766C160.502 190.414 160.171 190.995 159.691 191.41C159.211 191.825 158.613 192.05 157.997 192.045L157.098 192.059C157.085 192.085 157.071 192.109 157.054 192.132C157.653 192.276 158.186 192.641 158.559 193.164C158.932 193.688 159.123 194.335 159.096 194.994V194.994Z" fill="#E98862"/>
<g opacity="0.2">
<path d="M143.805 186.364C143.806 186.432 143.832 186.497 143.877 186.544C143.923 186.592 143.983 186.619 144.046 186.619L155.697 186.684C155.761 186.684 155.822 186.657 155.867 186.608C155.912 186.56 155.938 186.494 155.938 186.425C155.938 186.356 155.912 186.29 155.867 186.242C155.822 186.193 155.761 186.166 155.697 186.166L144.046 186.101C143.982 186.101 143.921 186.128 143.876 186.176C143.831 186.225 143.805 186.291 143.805 186.36V186.364Z" fill="#0C0C0C"/>
</g>
<g opacity="0.2">
<path d="M143.637 191.885C143.638 191.953 143.664 192.018 143.709 192.065C143.754 192.113 143.815 192.139 143.878 192.139L156.879 192.212C156.943 192.212 157.004 192.185 157.05 192.137C157.095 192.088 157.12 192.022 157.12 191.953C157.118 191.885 157.092 191.821 157.047 191.773C157.003 191.725 156.942 191.697 156.879 191.694L143.878 191.622C143.814 191.622 143.752 191.649 143.707 191.698C143.662 191.746 143.637 191.812 143.637 191.881V191.885Z" fill="#0C0C0C"/>
</g>
<g opacity="0.2">
<path d="M143.422 197.863C143.423 197.931 143.449 197.996 143.494 198.043C143.539 198.091 143.6 198.118 143.663 198.118L154.034 198.176C154.098 198.176 154.159 198.148 154.204 198.1C154.25 198.051 154.275 197.985 154.275 197.917C154.275 197.848 154.25 197.782 154.204 197.733C154.159 197.685 154.098 197.658 154.034 197.658L143.663 197.599C143.599 197.599 143.538 197.627 143.493 197.675C143.448 197.724 143.422 197.79 143.422 197.859V197.863Z" fill="#0C0C0C"/>
</g>
<path d="M133.241 209.548L54.825 224.559C51.5305 225.498 48.0559 225.418 44.8021 224.327C41.5483 223.236 38.6479 221.178 36.4354 218.392C34.2229 215.605 32.7886 212.204 32.2979 208.579C31.8072 204.954 32.2801 201.254 33.6621 197.906L62.2195 126.521C66.2689 116.713 76.2772 112.29 85.4024 116.641C89.7849 118.73 93.2156 122.605 94.9398 127.412C96.664 132.219 96.5405 137.566 94.5964 142.275L77.8261 184.995L130.27 177.506L133.241 209.548Z" fill="#AF2120"/>
<path d="M68.3389 222.329C68.3615 222.33 68.3839 222.326 68.4055 222.319L133.308 209.797C133.368 209.778 133.419 209.735 133.45 209.676C133.481 209.618 133.49 209.548 133.474 209.483L130.503 176.405C130.487 176.339 130.448 176.282 130.394 176.248C130.34 176.213 130.275 176.202 130.214 176.218L78.26 184.621L94.81 142.387C94.834 142.326 94.8351 142.257 94.8132 142.195C94.7913 142.133 94.7481 142.082 94.6923 142.053C94.6366 142.025 94.5727 142.02 94.5139 142.04C94.455 142.061 94.4057 142.105 94.3761 142.163L77.6092 184.882C77.59 184.926 77.5827 184.975 77.588 185.023C77.5934 185.071 77.6113 185.117 77.6397 185.155C77.668 185.193 77.7057 185.221 77.7484 185.237C77.791 185.253 77.837 185.256 77.8811 185.245L130.096 176.776L132.948 209.367L68.2719 221.823C68.2159 221.84 68.1675 221.878 68.1357 221.931C68.1039 221.983 68.0909 222.046 68.0991 222.108C68.1073 222.17 68.1361 222.227 68.1802 222.268C68.2243 222.309 68.2807 222.331 68.3389 222.331V222.329Z" fill="#0C0C0C"/>
<path d="M71.336 186.186C71.3532 186.186 71.3703 186.183 71.3871 186.179L77.8782 185.247C77.9094 185.24 77.939 185.226 77.9653 185.207C77.9916 185.188 78.0141 185.163 78.0314 185.134C78.0487 185.106 78.0606 185.073 78.0663 185.04C78.0721 185.006 78.0715 184.972 78.0647 184.938C78.0579 184.905 78.0451 184.873 78.0268 184.845C78.0086 184.817 77.9853 184.793 77.9584 184.775C77.9315 184.756 77.9015 184.744 77.8701 184.738C77.8387 184.732 77.8066 184.733 77.7755 184.741L71.2844 185.673C71.2266 185.687 71.1755 185.723 71.141 185.775C71.1064 185.827 71.0909 185.891 71.0973 185.954C71.1036 186.017 71.1315 186.076 71.1756 186.118C71.2196 186.161 71.2767 186.185 71.336 186.185V186.186Z" fill="#0C0C0C"/>
<path d="M173.905 145.599C173.966 145.599 174.025 145.574 174.07 145.53C174.114 145.486 174.142 145.425 174.147 145.36L175.221 130.42C175.225 130.351 175.205 130.283 175.163 130.231C175.121 130.179 175.062 130.146 174.998 130.141C174.934 130.136 174.871 130.158 174.822 130.203C174.774 130.248 174.743 130.312 174.738 130.38L173.664 145.32C173.66 145.388 173.68 145.456 173.722 145.508C173.763 145.56 173.823 145.592 173.886 145.598C173.893 145.598 173.899 145.599 173.905 145.599Z" fill="#0C0C0C"/>
<path d="M141.045 61.0473C141.91 61.0473 142.611 60.294 142.611 59.3648C142.611 58.4355 141.91 57.6822 141.045 57.6822C140.18 57.6822 139.479 58.4355 139.479 59.3648C139.479 60.294 140.18 61.0473 141.045 61.0473Z" fill="#0C0C0C"/>
<path d="M125.174 63.9286C126.039 63.9286 126.74 63.1753 126.74 62.2461C126.74 61.3168 126.039 60.5635 125.174 60.5635C124.309 60.5635 123.608 61.3168 123.608 62.2461C123.608 63.1753 124.309 63.9286 125.174 63.9286Z" fill="#0C0C0C"/>
<path d="M29.8696 266.745H278.681C278.809 266.745 278.931 266.69 279.022 266.593C279.112 266.496 279.163 266.364 279.163 266.227C279.163 266.089 279.112 265.958 279.022 265.86C278.931 265.763 278.809 265.709 278.681 265.709H29.8696C29.7418 265.709 29.6191 265.763 29.5287 265.86C29.4383 265.958 29.3875 266.089 29.3875 266.227C29.3875 266.364 29.4383 266.496 29.5287 266.593C29.6191 266.69 29.7418 266.745 29.8696 266.745Z" fill="#292A2E"/>
</g>
<defs>
<clipPath id="clip0_7_45">
<rect width="331.113" height="266.745" fill="white" transform="translate(0.887451)"/>
</clipPath>
</defs>
</svg>
